PathFileType	4	(X/Y/Z)	c:/Users/goper/Files/vsCode/490R/osim_files/A04/A04_ROM.trc
DataRate	CameraRate	NumFrames	NumMarkers	Units                	OrigDataRate	OrigDataStartFrame	OrigNumFrames
120.00	120.00	5	36	mm	120.0	195	1556
                Frame#	Time	LPSIS			LASIS			LTH1			LTH2			LTH3			LTH4			LLFE			LMFE			LSH1			LSH2			LSH3			LSH4			LLMAL			LMMAL			LCAL			LMTP5			LTOE			LMTP1			RPSIS			RASIS			RTH1			RTH2			RTH3			RTH4			RLFE			RMFE			RSH1			RSH2			RSH3			RSH4			RLMAL			RMMAL			RCAL			RMTP1			RTOE			RMTP5		
		X1	Y1	Z1	X2	Y2	Z2	X3	Y3	Z3	X4	Y4	Z4	X5	Y5	Z5	X6	Y6	Z6	X7	Y7	Z7	X8	Y8	Z8	X9	Y9	Z9	X10	Y10	Z10	X11	Y11	Z11	X12	Y12	Z12	X13	Y13	Z13	X14	Y14	Z14	X15	Y15	Z15	X16	Y16	Z16	X17	Y17	Z17	X18	Y18	Z18	X19	Y19	Z19	X20	Y20	Z20	X21	Y21	Z21	X22	Y22	Z22	X23	Y23	Z23	X24	Y24	Z24	X25	Y25	Z25	X26	Y26	Z26	X27	Y27	Z27	X28	Y28	Z28	X29	Y29	Z29	X30	Y30	Z30	X31	Y31	Z31	X32	Y32	Z32	X33	Y33	Z33	X34	Y34	Z34	X35	Y35	Z35	X36	Y36	Z36

195	1.61667	-279.74866	1036.26624	454.17880	-65.73420	1014.90149	342.91318	-152.26778	701.06287	298.86581	-148.68884	657.91095	290.04529	-91.42504	702.64551	299.86368	-94.45432	658.89819	289.19424	-131.66217	537.18005	288.91306	-110.25317	515.71777	425.91803	-179.32396	443.80740	274.92047	-179.53760	400.11850	271.39441	-118.16641	435.03406	283.64478	-127.67529	392.75110	280.00198	-248.88281	113.74088	271.06223	-222.96346	111.94254	352.10724	-311.42401	71.38865	326.78632	-113.87194	60.69435	224.42610	-61.27969	72.25756	281.62811	-76.03565	56.52588	326.92572	-269.44644	1029.52063	558.56378	-37.13688	1039.73352	629.95197	-154.56108	747.74469	698.14868	-151.24329	706.21741	702.57397	-93.59844	746.89484	709.51233	-100.62957	698.32153	708.08704	-102.96291	555.69922	700.14893	-98.77975	537.79706	584.35742	-196.47435	354.25467	724.34271	-199.77715	307.49969	724.13953	-134.90514	344.35065	726.89728	-148.42894	298.50482	730.18390	-205.68964	114.19875	755.40210	-186.54892	102.16438	621.48401	-282.28842	63.61496	686.83673	-64.38976	51.98265	641.35352	-33.34665	74.38039	686.95410	-70.07401	51.36576	761.17218
196	1.62500	-280.10214	1036.40906	454.95871	-66.46887	1014.58551	343.10611	-152.63786	701.10388	299.05499	-148.93755	657.92328	290.11447	-91.70960	702.66321	299.93884	-94.73836	658.99023	289.20599	-131.71642	537.14270	288.83487	-110.25614	515.65906	425.84653	-179.39818	443.73996	274.84161	-179.64824	400.07401	271.32889	-118.27731	434.97995	283.56134	-127.73023	392.71106	279.92279	-248.92271	113.69960	271.03717	-223.00882	111.85533	352.08466	-311.45819	71.30846	326.77783	-113.93175	60.65336	224.43506	-61.32290	72.22948	281.62369	-76.07805	56.50616	326.92749	-269.31433	1029.68518	559.36102	-36.86327	1039.83533	629.97900	-153.92703	747.70947	698.46112	-150.47610	706.25476	702.82880	-92.79722	746.99963	709.72455	-98.57530	699.94196	709.14392	-101.80393	555.72998	700.44763	-97.77721	537.99445	584.52100	-195.77919	354.35596	724.50543	-198.75360	307.95209	724.39203	-134.25755	344.37851	727.04529	-147.85318	298.53226	730.34991	-205.54381	114.32312	755.37988	-186.37251	102.35632	621.47729	-282.12253	63.79180	686.84460	-64.32642	51.89455	641.41602	-33.23748	74.32222	686.97778	-70.05602	51.28630	761.20013
197	1.63333	-280.28674	1036.47021	455.81937	-67.11425	1014.28754	343.35660	-152.94496	701.12518	299.27499	-149.15509	657.98474	290.24091	-91.91057	702.84613	300.08569	-94.98221	659.10620	289.28235	-131.75572	537.10974	288.80023	-110.18935	515.61768	425.80637	-179.43069	443.71631	274.83551	-179.66902	400.05130	271.30093	-118.31551	434.95941	283.51968	-127.78348	392.66574	279.89948	-248.95967	113.65636	271.01929	-222.98949	111.86756	352.07605	-311.48911	71.28575	326.77774	-113.94026	60.64360	224.42145	-61.33369	72.23832	281.61230	-76.11753	56.51120	326.91101	-269.21524	1029.91870	560.22040	-36.51110	1039.98364	630.08057	-153.62137	747.65991	699.66370	-150.08916	705.67584	702.69281	-92.04492	747.02191	709.46527	-97.72776	700.02966	709.36633	-100.75839	555.76593	700.74310	-96.81731	538.12683	584.79816	-195.16014	354.49500	724.64203	-198.67528	307.81976	724.46271	-133.61026	344.45413	727.19604	-147.32593	298.58783	730.47815	-205.36147	114.48512	755.37592	-186.18739	102.56673	621.45337	-282.08234	64.10793	686.73529	-64.26506	51.85112	641.45227	-33.15107	74.22355	686.99194	-69.99606	51.25657	761.23267
198	1.64167	-280.56863	1036.57251	456.83957	-67.71909	1013.96448	343.66351	-153.24544	701.16821	299.56522	-149.36974	658.02197	290.43057	-92.29787	702.83160	300.32028	-95.21445	659.23279	289.38104	-131.75092	537.06146	288.81503	-110.08887	515.57831	425.80771	-179.46341	443.66541	274.89447	-179.67682	400.00598	271.32773	-118.30540	434.92459	283.52451	-127.79440	392.63156	279.89639	-248.95319	113.63076	271.00244	-222.95796	111.83857	352.06433	-311.48145	71.24027	326.74582	-113.94886	60.63252	224.40149	-61.30304	72.21202	281.58383	-76.25790	56.35008	326.79776	-269.05527	1030.18396	561.13580	-36.14332	1040.17834	630.20184	-152.71956	747.64856	700.09875	-148.60869	706.44550	703.83594	-91.16820	747.18463	709.70447	-96.74176	700.18134	709.76263	-99.56319	555.85205	701.16046	-95.86396	538.27014	585.11835	-194.49588	354.66776	724.86725	-198.06496	307.98996	724.64624	-132.92461	344.47046	727.43878	-146.77196	298.62860	730.61151	-205.21928	114.64719	755.37842	-185.97401	102.75632	621.47083	-281.99612	64.38779	686.68140	-64.16087	51.83235	641.45807	-33.06323	74.12875	687.04718	-69.97693	51.20087	761.25659
199	1.65000	-280.87469	1036.62683	457.84424	-68.48489	1013.54138	344.06177	-153.51091	701.20868	299.91025	-149.60326	658.09930	290.70285	-92.47532	702.97235	300.62445	-95.72385	659.30975	291.01584	-131.71552	537.05103	288.91129	-109.99008	515.51562	425.86115	-179.46265	443.63806	274.98257	-179.66302	399.98187	271.40573	-118.31829	434.87021	283.60019	-127.79090	392.57733	279.97351	-248.96861	113.60012	271.00610	-222.90926	111.83726	352.04108	-311.49753	71.20400	326.74948	-113.95677	60.64109	224.39555	-61.28868	72.25730	281.55414	-76.24681	56.39100	326.77527	-268.95557	1030.49561	562.22614	-35.76981	1040.41638	630.38690	-151.84361	747.62140	700.57947	-148.17358	705.68127	703.73114	-90.30909	747.36505	710.07654	-95.93848	700.25073	710.16022	-98.45477	555.90955	701.58423	-94.79401	538.49353	585.55695	-193.78732	354.83124	725.15015	-197.52077	308.17279	724.80902	-132.25807	344.50681	727.66742	-146.16226	298.71344	730.86017	-205.04066	114.79182	755.35950	-185.80582	102.96140	621.51312	-281.90128	64.65296	686.61664	-63.95107	51.88317	641.49524	-32.95044	74.06187	687.05640	-69.88265	51.17404	761.25562
